<svg width="42" height="42" viewBox="0 0 42 42" fill="none" xmlns="http://www.w3.org/2000/svg">
<path d="M35.1081 32.7207C36.993 30.4528 38.304 27.7643 38.9301 24.8826C39.5562 22.001 39.4791 19.0109 38.7052 16.1653C37.9313 13.3198 36.4835 10.7025 34.4842 8.5348C32.4848 6.36713 29.9928 4.7129 27.219 3.71202C24.4451 2.71115 21.471 2.39309 18.5482 2.78474C15.6254 3.17639 12.84 4.26623 10.4274 5.96207C8.01493 7.65791 6.04636 9.90986 4.68824 12.5274C3.33012 15.145 2.62242 18.0511 2.62501 21C2.62611 25.2869 4.13677 29.4364 6.89194 32.7207L6.86569 32.743C6.95757 32.8532 7.06257 32.9477 7.15707 33.0567C7.27519 33.1918 7.40251 33.3192 7.52457 33.4504C7.89032 33.8503 8.27094 34.2309 8.66644 34.5923C8.78894 34.7008 8.91144 34.8067 9.03394 34.9099C9.45394 35.273 9.88707 35.6152 10.3333 35.9363C10.3911 35.9757 10.4436 36.0268 10.5013 36.0675V36.0518C13.5753 38.2152 17.2424 39.3763 21.0013 39.3763C24.7602 39.3763 28.4274 38.2152 31.5013 36.0518V36.0675C31.5591 36.0268 31.6103 35.9757 31.6693 35.9363C32.1156 35.6143 32.5487 35.2722 32.9687 34.9099C33.0912 34.8058 33.2137 34.6999 33.3362 34.5923C33.7308 34.2309 34.1114 33.8503 34.4781 33.4504C34.6001 33.3192 34.7261 33.1918 34.8456 33.0567C34.9388 32.9477 35.0451 32.8532 35.1369 32.7417L35.1081 32.7207ZM21 10.5C22.1682 10.5 23.3101 10.8464 24.2813 11.4954C25.2526 12.1444 26.0096 13.0668 26.4567 14.1461C26.9037 15.2253 27.0207 16.4128 26.7928 17.5585C26.5649 18.7042 26.0024 19.7566 25.1764 20.5826C24.3504 21.4086 23.298 21.9712 22.1523 22.199C21.0066 22.4269 19.819 22.31 18.7398 21.8629C17.6606 21.4159 16.7381 20.6589 16.0891 19.6876C15.4402 18.7163 15.0938 17.5744 15.0938 16.4063C15.0938 14.8398 15.716 13.3376 16.8237 12.2299C17.9313 11.1223 19.4336 10.5 21 10.5ZM10.5092 32.7207C10.532 30.9973 11.2323 29.3522 12.4587 28.1413C13.6851 26.9303 15.339 26.2509 17.0625 26.25H24.9375C26.661 26.2509 28.3149 26.9303 29.5413 28.1413C30.7677 29.3522 31.4681 30.9973 31.4908 32.7207C28.6123 35.3146 24.8748 36.7501 21 36.7501C17.1252 36.7501 13.3877 35.3146 10.5092 32.7207Z" fill="#094067"/>
</svg>
