<svg width="24" height="24" viewBox="0 0 24 24" fill="none" xmlns="http://www.w3.org/2000/svg">
<path d="M6 22C5.16667 22 4.45833 21.7083 3.875 21.125C3.29167 20.5417 3 19.8333 3 19V17C3 16.7167 3.096 16.4793 3.288 16.288C3.48 16.0967 3.71733 16.0007 4 16H6V4C6 3.45 6.196 2.97933 6.588 2.588C6.98 2.19667 7.45067 2.00067 8 2H19C19.55 2 20.021 2.196 20.413 2.588C20.805 2.98 21.0007 3.45067 21 4V10C21 10.2833 20.904 10.521 20.712 10.713C20.52 10.905 20.2827 11.0007 20 11C19.7173 10.9993 19.48 10.9033 19.288 10.712C19.096 10.5207 19 10.2833 19 10V4H8V16H11.975C12.3583 16 12.621 16.171 12.763 16.513C12.905 16.855 12.8423 17.159 12.575 17.425C12.3917 17.6083 12.25 17.821 12.15 18.063C12.05 18.305 12 18.559 12 18.825V21C12 21.2833 11.904 21.521 11.712 21.713C11.52 21.905 11.2827 22.0007 11 22H6ZM14 21V19.35C14 19.2167 14.025 19.0833 14.075 18.95C14.125 18.8167 14.2 18.7083 14.3 18.625L19.525 13.425C19.675 13.275 19.8417 13.1667 20.025 13.1C20.2083 13.0333 20.3917 13 20.575 13C20.775 13 20.9667 13.0377 21.15 13.113C21.3333 13.1883 21.5 13.3007 21.65 13.45L22.575 14.375C22.7083 14.525 22.8127 14.6917 22.888 14.875C22.9633 15.0583 23.0007 15.2417 23 15.425C22.9993 15.6083 22.966 15.796 22.9 15.988C22.834 16.18 22.7257 16.3507 22.575 16.5L17.375 21.7C17.2917 21.7833 17.1833 21.8543 17.05 21.913C16.9167 21.9717 16.7833 22.0007 16.65 22H15C14.7167 22 14.4793 21.904 14.288 21.712C14.0967 21.52 14.0007 21.2827 14 21ZM20.575 16.4L21.5 15.425L20.575 14.5L19.625 15.45L20.575 16.4ZM10 10H17C17.2833 10 17.521 10.096 17.713 10.288C17.905 10.48 18.0007 10.7173 18 11C17.9993 11.2827 17.9033 11.5203 17.712 11.713C17.5207 11.9057 17.2833 12.0013 17 12H10C9.71667 12 9.47933 11.904 9.288 11.712C9.09667 11.52 9.00067 11.2827 9 11C8.99933 10.7173 9.09533 10.48 9.288 10.288C9.48067 10.096 9.718 10 10 10ZM10 7H17C17.2833 7 17.521 7.096 17.713 7.288C17.905 7.48 18.0007 7.71733 18 8C17.9993 8.28267 17.9033 8.52033 17.712 8.713C17.5207 8.90567 17.2833 9.00133 17 9H10C9.71667 9 9.47933 8.904 9.288 8.712C9.09667 8.52 9.00067 8.28267 9 8C8.99933 7.71733 9.09533 7.48 9.288 7.288C9.48067 7.096 9.718 7 10 7Z" fill="#FFFFFE"/>
</svg>
