<svg width="24" height="25" viewBox="0 0 24 25" fill="none" xmlns="http://www.w3.org/2000/svg">
<path d="M5 21.5C4.45 21.5 3.97933 21.3043 3.588 20.913C3.19667 20.5217 3.00067 20.0507 3 19.5V5.50001C3 4.95001 3.196 4.47934 3.588 4.08801C3.98 3.69667 4.45067 3.50067 5 3.50001H11.525C11.8583 3.50001 12.1083 3.60434 12.275 3.81301C12.4417 4.02167 12.525 4.25067 12.525 4.50001C12.525 4.74934 12.4377 4.97867 12.263 5.18801C12.0883 5.39734 11.834 5.50134 11.5 5.50001H5V19.5H19V12.975C19 12.6417 19.1043 12.3917 19.313 12.225C19.5217 12.0583 19.7507 11.975 20 11.975C20.2493 11.975 20.4787 12.0583 20.688 12.225C20.8973 12.3917 21.0013 12.6417 21 12.975V19.5C21 20.05 20.8043 20.521 20.413 20.913C20.0217 21.305 19.5507 21.5007 19 21.5H5ZM9 14.5V12.075C9 11.8083 9.05 11.554 9.15 11.312C9.25 11.07 9.39167 10.8577 9.575 10.675L18.175 2.07501C18.375 1.87501 18.6 1.72501 18.85 1.62501C19.1 1.52501 19.35 1.47501 19.6 1.47501C19.8667 1.47501 20.121 1.52501 20.363 1.62501C20.605 1.72501 20.8257 1.87501 21.025 2.07501L22.425 3.50001C22.6083 3.70001 22.75 3.92101 22.85 4.16301C22.95 4.40501 23 4.65067 23 4.90001C23 5.14934 22.9543 5.39534 22.863 5.63801C22.7717 5.88067 22.6257 6.10134 22.425 6.30001L13.825 14.9C13.6417 15.0833 13.4293 15.2293 13.188 15.338C12.9467 15.4467 12.6923 15.5007 12.425 15.5H10C9.71667 15.5 9.47933 15.404 9.288 15.212C9.09667 15.02 9.00067 14.7827 9 14.5ZM11 13.5H12.4L18.2 7.70001L17.5 7.00001L16.775 6.30001L11 12.075V13.5Z" fill="#094067"/>
</svg>
