<svg width="20" height="21" viewBox="0 0 20 21" fill="none" xmlns="http://www.w3.org/2000/svg">
<g clip-path="url(#clip0_18_75)">
<mask id="mask0_18_75" style="mask-type:alpha" maskUnits="userSpaceOnUse" x="0" y="0" width="20" height="21">
<path d="M19.9697 0.5H0.0292969V20.5H19.9697V0.5Z" fill="white"/>
</mask>
<g mask="url(#mask0_18_75)">
<path fill-rule="evenodd" clip-rule="evenodd" d="M19.5714 10.7274C19.5714 10.0184 19.5076 9.33637 19.3899 8.68237H10V12.5504H15.366C15.1347 13.8004 14.4318 14.8594 13.3759 15.5684V18.0774H16.5983C18.4836 16.3364 19.5714 13.7734 19.5714 10.7274Z" fill="#4285F4"/>
<path fill-rule="evenodd" clip-rule="evenodd" d="M9.99981 20.5002C12.6918 20.5002 14.948 19.6052 16.5981 18.0782L13.3757 15.5692C12.4834 16.1692 11.3408 16.5231 9.99981 16.5231C7.40257 16.5231 5.20514 14.7641 4.42049 12.4001H1.08984V14.9911C2.73054 18.2591 6.10246 20.5002 9.99981 20.5002Z" fill="#34A853"/>
<path fill-rule="evenodd" clip-rule="evenodd" d="M4.42117 12.4C4.22176 11.8 4.10811 11.159 4.10811 10.5C4.10811 9.84103 4.22176 9.20004 4.42117 8.60004V6.00903H1.08973C0.414544 7.35903 0.0292969 8.88603 0.0292969 10.5C0.0292969 12.114 0.414544 13.641 1.08973 14.991L4.42117 12.4Z" fill="#FBBC05"/>
<path fill-rule="evenodd" clip-rule="evenodd" d="M9.99981 4.47701C11.4634 4.47701 12.7775 4.98201 13.8104 5.97301L16.6709 3.105C14.944 1.491 12.6868 0.5 9.99981 0.5C6.10246 0.5 2.73054 2.741 1.08984 6.009L4.42049 8.60001C5.20514 6.23601 7.40257 4.47701 9.99981 4.47701Z" fill="#EA4335"/>
</g>
</g>
<defs>
<clipPath id="clip0_18_75">
<rect width="20" height="20" fill="white" transform="translate(0 0.5)"/>
</clipPath>
</defs>
</svg>
