<svg width="42" height="42" viewBox="0 0 42 42" fill="none" xmlns="http://www.w3.org/2000/svg">
<path d="M20.9999 3.5C17.751 3.5 14.6352 4.79062 12.3379 7.08794C10.0406 9.38526 8.74994 12.5011 8.74994 15.75V21.924C8.75019 22.1955 8.68728 22.4633 8.56619 22.7063L5.56144 28.714C5.41466 29.0075 5.34535 29.3337 5.3601 29.6615C5.37485 29.9893 5.47316 30.308 5.64569 30.5871C5.81823 30.8662 6.05927 31.0966 6.34591 31.2564C6.63255 31.4162 6.95528 31.5 7.28344 31.5H34.7164C35.0446 31.5 35.3673 31.4162 35.654 31.2564C35.9406 31.0966 36.1817 30.8662 36.3542 30.5871C36.5267 30.308 36.625 29.9893 36.6398 29.6615C36.6545 29.3337 36.5852 29.0075 36.4384 28.714L33.4354 22.7063C33.3137 22.4634 33.2502 22.1956 33.2499 21.924V15.75C33.2499 12.5011 31.9593 9.38526 29.662 7.08794C27.3647 4.79062 24.2488 3.5 20.9999 3.5ZM20.9999 36.75C19.9138 36.7506 18.8542 36.4143 17.9672 35.7874C17.0802 35.1605 16.4095 34.274 16.0474 33.25H25.9524C25.5904 34.274 24.9197 35.1605 24.0327 35.7874C23.1457 36.4143 22.0861 36.7506 20.9999 36.75Z" fill="#094067"/>
</svg>
