<svg width="24" height="25" viewBox="0 0 24 25" fill="none" xmlns="http://www.w3.org/2000/svg">
<g clip-path="url(#clip0_197_2)">
<path d="M14.8299 19.5C14.6233 20.0855 14.2402 20.5926 13.7333 20.9512C13.2265 21.3099 12.6208 21.5025 11.9999 21.5025C11.379 21.5025 10.7734 21.3099 10.2665 20.9512C9.75967 20.5926 9.37653 20.0855 9.16993 19.5H14.8299ZM11.9999 2.5C13.8564 2.5 15.6369 3.2375 16.9497 4.55025C18.2624 5.86301 18.9999 7.64349 18.9999 9.5V13.028C19.0001 13.1832 19.0364 13.3362 19.1059 13.475L20.8219 16.908C20.9058 17.0757 20.9454 17.2621 20.937 17.4494C20.9286 17.6368 20.8724 17.8188 20.7738 17.9783C20.6752 18.1379 20.5375 18.2695 20.3737 18.3608C20.2099 18.4521 20.0255 18.5 19.8379 18.5H19.4139L20.4849 19.571C20.6671 19.7596 20.7679 20.0122 20.7656 20.2744C20.7633 20.5366 20.6582 20.7874 20.4727 20.9728C20.2873 21.1582 20.0365 21.2634 19.7743 21.2657C19.5121 21.268 19.2595 21.1672 19.0709 20.985L3.51493 5.43C3.41942 5.33775 3.34324 5.22741 3.29083 5.1054C3.23842 4.9834 3.21083 4.85218 3.20968 4.7194C3.20853 4.58662 3.23383 4.45494 3.28411 4.33205C3.33439 4.20915 3.40864 4.0975 3.50254 4.00361C3.59643 3.90971 3.70808 3.83546 3.83098 3.78518C3.95387 3.7349 4.08555 3.7096 4.21833 3.71075C4.35111 3.7119 4.48233 3.73949 4.60433 3.7919C4.72634 3.84431 4.83668 3.92049 4.92893 4.016L6.32093 5.408C6.96892 4.50725 7.82204 3.7737 8.80973 3.26803C9.79743 2.76236 10.8913 2.49909 12.0009 2.5M5.02293 8.927L14.5959 18.5H4.16193C3.97441 18.5 3.78999 18.4521 3.6262 18.3608C3.4624 18.2695 3.32467 18.1379 3.22608 17.9783C3.12748 17.8188 3.07131 17.6368 3.06288 17.4494C3.05445 17.2621 3.09406 17.0757 3.17793 16.908L4.89493 13.475C4.96413 13.3362 5.00008 13.1831 4.99993 13.028V9.5C4.99993 9.30667 5.0076 9.11567 5.02293 8.927Z" fill="#094067"/>
</g>
<defs>
<clipPath id="clip0_197_2">
<rect width="24" height="24" fill="white" transform="translate(0 0.5)"/>
</clipPath>
</defs>
</svg>
