<svg width="24" height="25" viewBox="0 0 24 25" fill="none" xmlns="http://www.w3.org/2000/svg">
<path d="M5.25 5.16669C4.38805 5.16669 3.5614 5.5091 2.9519 6.11859C2.34241 6.72808 2 7.55473 2 8.41669V9.66669H22V8.41669C22 7.98989 21.9159 7.56727 21.7526 7.17297C21.5893 6.77866 21.3499 6.42038 21.0481 6.11859C20.7463 5.8168 20.388 5.57741 19.9937 5.41408C19.5994 5.25075 19.1768 5.16669 18.75 5.16669H5.25ZM22 11.1667H2V15.9167C2 16.7786 2.34241 17.6053 2.9519 18.2148C3.5614 18.8243 4.38805 19.1667 5.25 19.1667H18.75C19.1768 19.1667 19.5994 19.0826 19.9937 18.9193C20.388 18.756 20.7463 18.5166 21.0481 18.2148C21.3499 17.913 21.5893 17.5547 21.7526 17.1604C21.9159 16.7661 22 16.3435 22 15.9167V11.1667ZM15.75 14.6667H18.25C18.4489 14.6667 18.6397 14.7457 18.7803 14.8864C18.921 15.027 19 15.2178 19 15.4167C19 15.6156 18.921 15.8064 18.7803 15.947C18.6397 16.0877 18.4489 16.1667 18.25 16.1667H15.75C15.5511 16.1667 15.3603 16.0877 15.2197 15.947C15.079 15.8064 15 15.6156 15 15.4167C15 15.2178 15.079 15.027 15.2197 14.8864C15.3603 14.7457 15.5511 14.6667 15.75 14.6667Z" fill="#094067"/>
</svg>
