<svg width="24" height="24" viewBox="0 0 24 24" fill="none" xmlns="http://www.w3.org/2000/svg">
<path d="M19.95 21C20.25 21 20.5 20.9 20.7 20.7C20.9 20.5 21 20.25 21 19.95V15.9C21 15.6833 20.925 15.4877 20.775 15.313C20.625 15.1383 20.4333 15.0173 20.2 14.95L16.75 14.25C16.5167 14.2167 16.279 14.2377 16.037 14.313C15.795 14.3883 15.5993 14.5007 15.45 14.65L13.1 17C12.4667 16.6333 11.8667 16.229 11.3 15.787C10.7333 15.345 10.1917 14.866 9.675 14.35C9.125 13.8167 8.62067 13.2627 8.162 12.688C7.70333 12.1133 7.30767 11.5173 6.975 10.9L9.4 8.45C9.53333 8.31667 9.625 8.15833 9.675 7.975C9.725 7.79167 9.73333 7.56667 9.7 7.3L9.05 3.8C9.01667 3.58333 8.90833 3.396 8.725 3.238C8.54167 3.08 8.33333 3.00067 8.1 3H4.05C3.75 3 3.5 3.1 3.3 3.3C3.1 3.5 3 3.75 3 4.05C3 6.13333 3.454 8.19167 4.362 10.225C5.27 12.2583 6.55767 14.1083 8.225 15.775C9.89233 17.4417 11.7423 18.7293 13.775 19.638C15.8077 20.5467 17.866 21.0007 19.95 21Z" fill="#094067"/>
</svg>
