<svg width="24" height="25" viewBox="0 0 24 25" fill="none" xmlns="http://www.w3.org/2000/svg">
<path d="M12 16.5C10.85 16.5 9.775 16.675 8.775 17.025C7.775 17.375 6.85 17.8667 6 18.5V20.5H18V18.5C17.15 17.8667 16.225 17.375 15.225 17.025C14.225 16.675 13.15 16.5 12 16.5ZM6 22.5C5.45 22.5 4.97933 22.3043 4.588 21.913C4.19667 21.5217 4.00067 21.0507 4 20.5V4.5C4 3.95 4.196 3.47933 4.588 3.088C4.98 2.69667 5.45067 2.50067 6 2.5H18C18.55 2.5 19.021 2.696 19.413 3.088C19.805 3.48 20.0007 3.95067 20 4.5V20.5C20 21.05 19.8043 21.521 19.413 21.913C19.0217 22.305 18.5507 22.5007 18 22.5H6ZM12 14.5C12.9667 14.5 13.7917 14.1583 14.475 13.475C15.1583 12.7917 15.5 11.9667 15.5 11C15.5 10.0333 15.1583 9.20833 14.475 8.525C13.7917 7.84167 12.9667 7.5 12 7.5C11.0333 7.5 10.2083 7.84167 9.525 8.525C8.84167 9.20833 8.5 10.0333 8.5 11C8.5 11.9667 8.84167 12.7917 9.525 13.475C10.2083 14.1583 11.0333 14.5 12 14.5Z" fill="#094067"/>
</svg>
