<svg width="24" height="25" viewBox="0 0 24 25" fill="none" xmlns="http://www.w3.org/2000/svg">
<path d="M5 21.5C4.45 21.5 3.97933 21.3043 3.588 20.913C3.19667 20.5217 3.00067 20.0507 3 19.5V5.5C3 4.95 3.196 4.47933 3.588 4.088C3.98 3.69667 4.45067 3.50067 5 3.5H9.2C9.41667 2.9 9.77933 2.41667 10.288 2.05C10.7967 1.68333 11.3673 1.5 12 1.5C12.6327 1.5 13.2037 1.68333 13.713 2.05C14.2223 2.41667 14.5847 2.9 14.8 3.5H19C19.55 3.5 20.021 3.696 20.413 4.088C20.805 4.48 21.0007 4.95067 21 5.5V19.5C21 20.05 20.8043 20.521 20.413 20.913C20.0217 21.305 19.5507 21.5007 19 21.5H5ZM5 19.5H19V5.5H5V19.5ZM8 17.5H13C13.2833 17.5 13.521 17.404 13.713 17.212C13.905 17.02 14.0007 16.7827 14 16.5C13.9993 16.2173 13.9033 15.98 13.712 15.788C13.5207 15.596 13.2833 15.5 13 15.5H8C7.71667 15.5 7.47933 15.596 7.288 15.788C7.09667 15.98 7.00067 16.2173 7 16.5C6.99933 16.7827 7.09533 17.0203 7.288 17.213C7.48067 17.4057 7.718 17.5013 8 17.5ZM8 13.5H16C16.2833 13.5 16.521 13.404 16.713 13.212C16.905 13.02 17.0007 12.7827 17 12.5C16.9993 12.2173 16.9033 11.98 16.712 11.788C16.5207 11.596 16.2833 11.5 16 11.5H8C7.71667 11.5 7.47933 11.596 7.288 11.788C7.09667 11.98 7.00067 12.2173 7 12.5C6.99933 12.7827 7.09533 13.0203 7.288 13.213C7.48067 13.4057 7.718 13.5013 8 13.5ZM8 9.5H16C16.2833 9.5 16.521 9.404 16.713 9.212C16.905 9.02 17.0007 8.78267 17 8.5C16.9993 8.21733 16.9033 7.98 16.712 7.788C16.5207 7.596 16.2833 7.5 16 7.5H8C7.71667 7.5 7.47933 7.596 7.288 7.788C7.09667 7.98 7.00067 8.21733 7 8.5C6.99933 8.78267 7.09533 9.02033 7.288 9.213C7.48067 9.40567 7.718 9.50133 8 9.5ZM12 4.75C12.2167 4.75 12.396 4.679 12.538 4.537C12.68 4.395 12.7507 4.216 12.75 4C12.7493 3.784 12.6783 3.605 12.537 3.463C12.3957 3.321 12.2167 3.25 12 3.25C11.7833 3.25 11.6043 3.321 11.463 3.463C11.3217 3.605 11.2507 3.784 11.25 4C11.2493 4.216 11.3203 4.39533 11.463 4.538C11.6057 4.68067 11.7847 4.75133 12 4.75Z" fill="#094067"/>
</svg>
