<svg width="24" height="24" viewBox="0 0 24 24" fill="none" xmlns="http://www.w3.org/2000/svg">
<path d="M13 1V4H11V1H13ZM20.485 4.928L18.364 7.05L16.95 5.636L19.071 3.514L20.485 4.928ZM4.93 3.514L7.05 5.636L5.636 7.05L3.515 4.929L4.93 3.514ZM6 12C6 10.4087 6.63214 8.88258 7.75736 7.75736C8.88258 6.63214 10.4087 6 12 6C13.5913 6 15.1174 6.63214 16.2426 7.75736C17.3679 8.88258 18 10.4087 18 12C18 13.5913 17.3679 15.1174 16.2426 16.2426C15.1174 17.3679 13.5913 18 12 18C10.4087 18 8.88258 17.3679 7.75736 16.2426C6.63214 15.1174 6 13.5913 6 12ZM1 11H4V13H1V11ZM20 11H23V13H20V11ZM7.05 18.363L4.93 20.486L3.515 19.07L5.636 16.948L7.05 18.363ZM18.364 16.949L20.485 19.071L19.071 20.485L16.95 18.364L18.364 16.949ZM13 20V23H11V20H13Z" fill="#E8B931"/>
</svg>
