<svg width="24" height="25" viewBox="0 0 24 25" fill="none" xmlns="http://www.w3.org/2000/svg">
<path d="M15.5 7.43494C16.5643 8.04939 17.448 8.93319 18.0624 9.99748C18.6768 11.0618 19.0001 12.269 19 13.4979V21.4979H14.83C14.6234 22.0835 14.2403 22.5905 13.7334 22.9492C13.2265 23.3078 12.6209 23.5004 12 23.5004C11.3791 23.5004 10.7735 23.3078 10.2666 22.9492C9.75974 22.5905 9.3766 22.0835 9.17 21.4979H5V13.4979C4.99986 12.269 5.32323 11.0618 5.93762 9.99748C6.552 8.93319 7.43574 8.04939 8.5 7.43494C8.33594 7.1397 8.20994 6.82486 8.125 6.49794H5V4.49794H8.126C8.34844 3.6397 8.84957 2.87962 9.55074 2.33702C10.2519 1.79441 11.1134 1.5 12 1.5C12.8866 1.5 13.7481 1.79441 14.4493 2.33702C15.1504 2.87962 15.6516 3.6397 15.874 4.49794H19V6.49794H15.874C15.7873 6.82928 15.663 7.14161 15.501 7.43494M12 14.4979C11.7348 14.4979 11.4804 14.6033 11.2929 14.7908C11.1054 14.9784 11 15.2327 11 15.4979V20.4979C11 20.7632 11.1054 21.0175 11.2929 21.2051C11.4804 21.3926 11.7348 21.4979 12 21.4979C12.2652 21.4979 12.5196 21.3926 12.7071 21.2051C12.8946 21.0175 13 20.7632 13 20.4979V15.4979C13 15.2327 12.8946 14.9784 12.7071 14.7908C12.5196 14.6033 12.2652 14.4979 12 14.4979ZM12 7.49794C12.5304 7.49794 13.0391 7.28723 13.4142 6.91216C13.7893 6.53709 14 6.02838 14 5.49794C14 4.96751 13.7893 4.4588 13.4142 4.08373C13.0391 3.70866 12.5304 3.49794 12 3.49794C11.4696 3.49794 10.9609 3.70866 10.5858 4.08373C10.2107 4.4588 10 4.96751 10 5.49794C10 6.02838 10.2107 6.53709 10.5858 6.91216C10.9609 7.28723 11.4696 7.49794 12 7.49794Z" fill="#094067"/>
</svg>
