<svg width="24" height="25" viewBox="0 0 24 25" fill="none" xmlns="http://www.w3.org/2000/svg">
<path d="M13 20.8333C13.2652 20.8333 13.5195 20.9387 13.7071 21.1262C13.8946 21.3138 14 21.5681 14 21.8333C14 22.0985 13.8946 22.3529 13.7071 22.5404C13.5195 22.728 13.2652 22.8333 13 22.8333C12.7348 22.8333 12.4804 22.728 12.2929 22.5404C12.1053 22.3529 12 22.0985 12 21.8333C12 21.5681 12.1053 21.3138 12.2929 21.1262C12.4804 20.9387 12.7348 20.8333 13 20.8333ZM9.49997 19.8333C9.76519 19.8333 10.0195 19.9387 10.2071 20.1262C10.3946 20.3138 10.5 20.5681 10.5 20.8333C10.5 21.0985 10.3946 21.3529 10.2071 21.5404C10.0195 21.728 9.76519 21.8333 9.49997 21.8333C9.23476 21.8333 8.9804 21.728 8.79287 21.5404C8.60533 21.3529 8.49997 21.0985 8.49997 20.8333C8.49997 20.5681 8.60533 20.3138 8.79287 20.1262C8.9804 19.9387 9.23476 19.8333 9.49997 19.8333ZM16.5 19.8333C16.7652 19.8333 17.0195 19.9387 17.2071 20.1262C17.3946 20.3138 17.5 20.5681 17.5 20.8333C17.5 21.0985 17.3946 21.3529 17.2071 21.5404C17.0195 21.728 16.7652 21.8333 16.5 21.8333C16.2348 21.8333 15.9804 21.728 15.7929 21.5404C15.6053 21.3529 15.5 21.0985 15.5 20.8333C15.5 20.5681 15.6053 20.3138 15.7929 20.1262C15.9804 19.9387 16.2348 19.8333 16.5 19.8333ZM13.002 6.84233C16.17 6.84233 17.968 8.93933 18.229 11.4723H18.309C18.7932 11.4717 19.2729 11.5664 19.7205 11.7512C20.1682 11.9359 20.575 12.207 20.9179 12.549C21.2607 12.8911 21.5329 13.2973 21.7187 13.7445C21.9045 14.1916 22.0004 14.6711 22.001 15.1553C22.0003 15.6395 21.9043 16.1188 21.7184 16.5659C21.5325 17.013 21.2604 17.4191 20.9175 17.761C20.5747 18.1029 20.1679 18.3739 19.7203 18.5586C19.2727 18.7433 18.7932 18.838 18.309 18.8373H7.69397C7.20979 18.838 6.73022 18.7433 6.28264 18.5586C5.83506 18.3739 5.42824 18.1029 5.08541 17.761C4.74257 17.4191 4.47044 17.013 4.28454 16.5659C4.09865 16.1188 4.00263 15.6395 4.00197 15.1553C4.0025 14.6711 4.09842 14.1916 4.28426 13.7445C4.47009 13.2973 4.74221 12.8911 5.08505 12.549C5.4279 12.207 5.83476 11.9359 6.28241 11.7512C6.73005 11.5664 7.20971 11.4717 7.69397 11.4723H7.77397C8.03697 8.92233 9.83397 6.84233 13.002 6.84233ZM4.36697 10.9973C4.43651 11.1648 4.44302 11.3518 4.38529 11.5237C4.32756 11.6956 4.2095 11.8408 4.05297 11.9323L3.96197 11.9773L3.03497 12.3613C2.85962 12.4328 2.66372 12.4353 2.4866 12.3683C2.30948 12.3013 2.16425 12.1698 2.08007 12.0002C1.99589 11.8306 1.97899 11.6354 2.03277 11.4538C2.08654 11.2723 2.207 11.1178 2.36997 11.0213L2.46097 10.9753L3.38797 10.5913C3.47898 10.5536 3.57652 10.5342 3.67502 10.5342C3.77353 10.5342 3.87107 10.5536 3.96207 10.5913C4.05308 10.629 4.13576 10.6843 4.20541 10.754C4.27505 10.8236 4.32929 10.9063 4.36697 10.9973ZM10.855 6.16433L10.684 6.22233C8.89897 6.85233 7.62097 8.22733 7.06897 10.0453L6.99897 10.2953L6.93997 10.5333L6.73397 10.5723C6.13539 10.697 5.56766 10.9397 5.06397 11.2863C4.60564 10.4986 4.43444 9.57631 4.57951 8.67653C4.72457 7.77674 5.17693 6.95502 5.85962 6.35121C6.5423 5.74739 7.41312 5.39878 8.32389 5.36471C9.23465 5.33064 10.1291 5.61321 10.855 6.16433ZM2.94197 6.19533L3.04697 6.23033L3.97297 6.61433C4.14664 6.68754 4.28637 6.82344 4.36438 6.995C4.44239 7.16656 4.45294 7.36121 4.39395 7.5402C4.33496 7.71919 4.21074 7.86941 4.04602 7.96097C3.88129 8.05254 3.68813 8.07873 3.50497 8.03433L3.39897 8.00033L2.47297 7.61633C2.29885 7.54334 2.15866 7.40736 2.08039 7.23554C2.00213 7.06373 1.99155 6.86871 2.05076 6.68943C2.10997 6.51015 2.23462 6.3598 2.39983 6.2684C2.56503 6.17699 2.75863 6.15026 2.94197 6.19533ZM6.75697 3.21033L6.80197 3.30133L7.18597 4.22733C7.25848 4.40284 7.26172 4.59932 7.19502 4.77713C7.12832 4.95493 6.99666 5.10081 6.82661 5.18533C6.65655 5.26985 6.46077 5.28671 6.27877 5.23252C6.09676 5.17832 5.94209 5.05711 5.84597 4.89333L5.79997 4.80133L5.41597 3.87533C5.3445 3.69998 5.342 3.50407 5.40899 3.32695C5.47597 3.14984 5.60747 3.00461 5.7771 2.92043C5.94672 2.83625 6.14191 2.81935 6.32347 2.87312C6.50504 2.9269 6.66055 3.04736 6.75697 3.21033ZM11.109 2.89133C11.2752 2.96006 11.4112 3.08624 11.4921 3.24686C11.5731 3.40748 11.5936 3.59184 11.55 3.76633L11.515 3.87133L11.132 4.79733C11.0598 4.9726 10.924 5.11406 10.7518 5.19327C10.5796 5.27247 10.3838 5.28354 10.2038 5.22425C10.0238 5.16496 9.87288 5.0397 9.78145 4.87368C9.69002 4.70765 9.66484 4.51317 9.71097 4.32933L9.74597 4.22333L10.129 3.29733C10.1667 3.20632 10.2219 3.12362 10.2915 3.05396C10.3612 2.9843 10.4439 2.92904 10.5349 2.89134C10.6259 2.85363 10.7234 2.83423 10.8219 2.83423C10.9204 2.83423 11.018 2.85363 11.109 2.89133Z" fill="#094067"/>
</svg>
